<?xml version="1.0" encoding="UTF-8"?>
<svg width="752pt" height="752pt" version="1.1" viewBox="0 0 752 752" xmlns="http://www.w3.org/2000/svg">
 <g fill-rule="evenodd">
  <path d="m441.85 471.99-43.402-43.402 26.773-26.77 43.402 43.402 43.402-43.402 26.77 26.77-43.402 43.402 43.402 43.406-26.77 26.77-43.402-43.406-43.402 43.406-26.773-26.77z"/>
  <path d="m355.04 490.92h-151.44v-37.859h151.44z"/>
  <path d="m298.25 415.2c0 10.453-8.4727 18.93-18.93 18.93-10.453 0-18.93-8.4766-18.93-18.93s8.4766-18.93 18.93-18.93c10.457 0 18.93 8.4766 18.93 18.93zm0 113.58c0 10.453-8.4727 18.93-18.93 18.93-10.453 0-18.93-8.4766-18.93-18.93 0-10.457 8.4766-18.93 18.93-18.93 10.457 0 18.93 8.4727 18.93 18.93z"/>
  <path d="m544.34 301.62h-151.44v-37.859h151.44z"/>
  <path d="m260.39 263.77v-56.793h37.859v56.793h56.789v37.859h-56.789v56.785h-37.859v-56.785h-56.789v-37.859z"/>
 </g>
</svg>
