<?xml version="1.0" encoding="UTF-8"?>
<svg width="752pt" height="752pt" version="1.1" viewBox="0 0 752 752" xmlns="http://www.w3.org/2000/svg">
 <g>
  <path d="m518.45 468.54c-26.285-13.141-89.047-29.043-91.707-29.719-1.3242-0.33203-2.7461-0.21484-3.9883 0.39063l-45.547 21.656-48.094-21.703c-1.2188-0.55469-2.6055-0.6875-3.8828-0.34375-2.6641 0.67578-65.414 16.562-91.695 29.719-28.285 14.137-32.168 77.477-32.523 84.652-0.10547 2.25 1.0781 4.3672 3.043 5.4688 3.1719 1.7539 78.816 43 171.92 43s168.75-41.238 171.92-43c1.9766-1.1016 3.1602-3.207 3.043-5.4688-0.32422-7.1758-4.207-70.504-32.492-84.652zm-305.36 81.48c1.4805-19.82 8.168-62.098 25.75-70.883 22.613-11.309 76.293-25.469 87.305-28.32l37.047 16.73-55.434 26.355c-1.2188 0.58203-2.2031 1.5625-2.7812 2.7578l-36.598 75.5c-27.727-8.7852-47.758-18.328-55.289-22.141zm162.91 39.816c-35.543 0-68.824-6.418-96.137-14.207l34.867-71.914 111.18-52.863c11.152 2.8789 64.668 17 87.258 28.297 17.547 8.7734 24.246 51.062 25.75 70.883-15.473 7.8125-83.465 39.805-162.92 39.805z"/>
  <path d="m481.54 519.93h-51.289c-3.2695 0-5.918 2.6523-5.918 5.918v21.703c0 3.2695 2.6523 5.918 5.918 5.918h51.289c3.2695 0 5.918-2.6523 5.918-5.918v-21.703c0-3.2656-2.6523-5.918-5.918-5.918zm-5.918 21.703h-39.449v-9.8633h39.449z"/>
  <path d="m385 567.09c0 4.9727-4.0273 9-9 9-4.9688 0-8.9961-4.0273-8.9961-9 0-4.9688 4.0273-8.9961 8.9961-8.9961 4.9727 0 9 4.0273 9 8.9961"/>
  <path d="m385 535.28c0 4.9688-4.0273 9-9 9-4.9688 0-8.9961-4.0312-8.9961-9s4.0273-8.9961 8.9961-8.9961c4.9727 0 9 4.0273 9 8.9961"/>
  <path d="m385 503.45c0 4.9688-4.0273 9-9 9-4.9688 0-8.9961-4.0312-8.9961-9s4.0273-8.9961 8.9961-8.9961c4.9727 0 9 4.0273 9 8.9961"/>
  <path d="m299.98 282.18v19.121c0 0.82812 0.17578 1.6211 0.49609 2.3438-0.98437 5.6719-1.9648 14.504-1.4102 20.969-0.65234 0.40234-1.2656 0.76953-1.8594 1.1367-6.2266 3.7422-10.633 7.3281-10.633 19.43 0 16.352 7.6016 30.805 19.156 36.879 12.656 28.594 38.23 60.938 70.266 60.938 32.039 0 57.598-32.344 70.266-60.938 11.555-6.0859 19.156-20.531 19.156-36.879 0-12.09-4.4062-15.676-10.633-19.43-0.59375-0.35547-1.207-0.73438-1.8594-1.1367 0.55469-6.4648-0.42578-15.297-1.4102-20.969 0.30859-0.73438 0.49609-1.5156 0.49609-2.3438v-19.121c17.074-2.8281 30.133-17.699 30.133-35.555 0-11.898-5.918-22.91-15.711-29.598 0-0.17578 0.011718-0.34375 0.011718-0.53125 0-19.879-16.172-36.039-36.039-36.039-2.5703 0-5.125 0.27344-7.6484 0.82812-7.9688-18.73-26.086-30.961-46.758-30.961s-38.785 12.219-46.766 30.961c-2.5234-0.55469-5.0781-0.82812-7.6484-0.82812-19.879 0-36.039 16.16-36.039 36.039 0 0.1875 0 0.35547 0.011719 0.53125-9.7812 6.6875-15.711 17.699-15.711 29.598 0 17.855 13.059 32.727 30.133 35.555zm153.61 62.988c0 12.469-5.8125 23.574-14.125 27.02-1.4453 0.59375-2.582 1.7305-3.1953 3.1602-11.77 27.789-34.973 55.812-60.262 55.812-25.289 0-48.496-28.023-60.262-55.812-0.60547-1.4336-1.7539-2.5703-3.1953-3.1602-8.3125-3.4453-14.125-14.551-14.125-27.02 0-6.3359 0.74609-6.7852 4.8906-9.2812 1.6914-1.0078 3.5625-2.1562 5.6016-3.7188 1.7031-1.3008 2.5469-3.4453 2.2383-5.5664-0.011719-0.10547-1.2188-8.6328 0.62891-19.383h128.43c1.8477 10.738 0.65234 19.273 0.62891 19.383-0.30859 2.1211 0.54297 4.25 2.2383 5.5664 2.0352 1.5742 3.918 2.7109 5.6016 3.7188 4.1562 2.4961 4.9023 2.9453 4.9023 9.2812zm-158.97-119.8c2.2031-1.1719 3.3047-4.4414 2.9609-6.9023-0.085937-0.64062-0.19141-1.2891-0.19141-1.9648 0-13.344 10.855-24.199 24.199-24.199 3.0781 0 6.1328 0.60547 9.082 1.7891 1.5391 0.62891 3.293 0.55469 4.7812-0.15234 1.5039-0.73438 2.6289-2.0469 3.1016-3.6602 5.0234-16.805 20.07-28.109 37.449-28.109s32.43 11.293 37.449 28.117c0.47266 1.6094 1.5977 2.9258 3.1016 3.6602 1.5039 0.72266 3.2422 0.78125 4.7812 0.15234 2.9492-1.1953 6.0039-1.7891 9.082-1.7891 13.344 0 24.199 10.855 24.199 24.199 0 0.67578-0.10547 1.3125-0.32031 2.9023-0.30859 2.4375 0.92188 4.8086 3.0898 5.9688 7.9688 4.2383 12.93 12.395 12.93 21.266 0 13.344-10.855 24.199-24.211 24.199-3.2695 0-5.918 2.6523-5.918 5.918v18.637h-128.36v-18.637c0-3.2695-2.6523-5.918-5.918-5.918-13.344 0-24.211-10.855-24.211-24.199-0.003906-8.8828 4.957-17.027 12.926-21.277z"/>
 </g>
</svg>
