<?xml version="1.0" encoding="UTF-8"?>
<svg width="752pt" height="752pt" version="1.1" viewBox="0 0 752 752" xmlns="http://www.w3.org/2000/svg">
 <path d="m592.98 196.43h-434.28c-2.6133 0-4.7344 2.1211-4.7344 4.7344v351.4c0 2.6172 2.1211 4.7344 4.7344 4.7344h434.29c2.6172 0 4.7344-2.1172 4.7344-4.7344v-351.4c0-2.6133-2.1172-4.7344-4.7383-4.7344zm-400.93 354.71c-16.188 0-29.316-13.121-29.316-29.316 0-16.191 13.129-29.32 29.316-29.32 16.191 0 29.32 13.129 29.32 29.32 0 16.191-13.125 29.316-29.32 29.316zm38.781-66.656c-7.8477 0-14.207-6.3594-14.207-14.207v-201.03c0-7.8477 6.3594-14.207 14.207-14.207h290.03c7.8477 0 14.207 6.3594 14.207 14.207v201.03c0 7.8477-6.3594 14.207-14.207 14.207zm328.8 66.656c-16.191 0-29.316-13.121-29.316-29.316 0-16.191 13.121-29.32 29.316-29.32 16.195 0 29.32 13.129 29.32 29.32-0.003907 16.191-13.125 29.316-29.32 29.316z"/>
</svg>
