<?xml version="1.0" encoding="UTF-8"?>
<svg width="752pt" height="752pt" version="1.1" viewBox="0 0 752 752" xmlns="http://www.w3.org/2000/svg">
 <g>
  <path d="m441.63 267.14c0.15234-8.5-1.8828-14.918-6.0469-19.082-0.24219-0.24219-0.51562-0.48047-0.77344-0.71875l0.41406-3.1289v-0.007812l5.1328-39.027c1.207-9.1562-6.1992-16.637-18.008-18.188-8.7461-1.1523-18.102 1.7383-21.273 9.2305-1.082-3.293-3.3281-6.0898-6.6523-8.1055-6.6445-4.0312-16.434-4.2305-23.281-0.47266-5.0391 2.7617-7.875 7.2734-7.9961 12.699l-0.015625 0.69922c-3.293-4.9336-10.027-7.7812-18.406-7.3086-8.8125 0.50781-17.496 5.1523-18.809 13.164-3.5156-2.5352-8.6484-3.6953-14.59-3.0156-10.656 1.2227-17.477 7.5469-16.578 15.375l4.8086 41.898c0.09375 0.81641 0.27344 1.5938 0.51562 2.3359-0.20312 0.46875-0.32031 0.98828-0.32031 1.5312v6.2266c0 7.4648 1.4414 32.926 20 47.078 7.6992 5.8711 17.133 8.8164 28.188 8.8164 6.207 0 12.938-0.94141 20.148-2.8008 2.8398 1.5195 6.0977 2.293 9.7422 2.293h1.6992 1.8594c12.691 0 30.68-0.45703 41.688-10.703 8.1484-7.5859 18.238-31.035 18.555-48.789zm-33.461-66.199c0.72266-5.4805 8.2461-6.5117 13.117-5.8711 4.1367 0.54297 11.75 3.1289 10.988 9.0273-0.003907 0.027344-0.007813 0.058594-0.011719 0.085938l-4.9883 37.926c-5.9219-3.1953-13.758-5.9297-23.438-8.1875zm-37.262 10.203v-0.007813l0.23438-10.629c0.054687-2.5195 1.3477-4.4922 3.8477-5.8594 4.3594-2.3906 11.074-2.2617 15.285 0.29688 2.4492 1.4844 3.6133 3.4688 3.5547 6.0703v0.027343 0.046876l-0.60547 30.684c-8.4023-1.4648-16.332-2.2109-22.719-2.1523zm-25.719-9.3789c4.6797-0.25781 11.746 1.1641 12.074 6.207 0.63281 9.6758 1.043 14.059 1.668 20.695l0.23047 2.4805c-10.68 3.5-15.523 13.004-14.703 21.777 0.40234 4.2773 2.1875 8.4648 5.1758 11.598-3.3789 0.83594-7.1211 0.46875-9.8789-1.1328-2.4805-1.4336-3.793-3.6211-3.9062-6.5l-1.6328-40.992c-0.011719-0.32812-0.074219-0.63672-0.16016-0.9375-0.09375-2.0234-0.18359-3.9375-0.26953-5.6641-0.25-5.0312 6.6836-7.2617 11.402-7.5312zm-38.566 58.508-3.793-33.043c-0.003906-0.019531-0.003906-0.035156-0.007813-0.054687l-1.0039-8.7422c-0.46484-4.0469 4.9688-6.8828 10.32-7.4961 4.375-0.50391 11.082 0.40625 11.605 4.9805l0.003906 0.03125c0 0.007813 0 0.019532 0.003906 0.03125l3.6719 31.984c0.070313 1.7383 0.11328 2.7812 0.11719 2.832 0 0.035156 0.011719 0.066406 0.015626 0.10156l0.25 6.3086c0.039062 0.98438 0.18359 1.9219 0.37891 2.8438-1.3047 2.8359-5.6523 4.7656-9.9492 5.2617-4.3789 0.50391-11.082-0.41016-11.605-4.9766zm72.926 58.633-1.7109-0.003906c-3.7656 0-6.6953-1.1758-8.9609-3.5898-6.2383-6.6484-5.4531-20.105-5.4453-20.242 0.14062-2.125-1.4688-3.9609-3.5938-4.1055-2.1445-0.12891-3.9688 1.4648-4.1094 3.5938-0.042968 0.625-0.83594 14.145 5.4805 23.438-15.328 3.0547-27.676 1.1094-36.766-5.8203-12.504-9.5352-16.961-27.402-16.961-40.938v-0.21094c2.3789 0.99609 5.1758 1.5469 8.2812 1.5469 1.0625 0 2.1602-0.0625 3.2891-0.19141 5.3711-0.61719 9.7656-2.5312 12.688-5.2773 1.1172 1.2461 2.4336 2.3477 3.9883 3.2461 3.0391 1.7617 6.6836 2.6445 10.371 2.6445 3.5352 0 7.1094-0.8125 10.227-2.4375 0.61328-0.32031 1.0938-0.78516 1.4531-1.3203 1.7891 0.43359 3.7422 0.60938 5.8516 0.46484 24.262-1.7539 30.684 7.3164 30.898 7.6367 1.0781 1.793 3.3984 2.4023 5.2305 1.3555 1.8477-1.0625 2.4883-3.4219 1.4258-5.2695-0.80078-1.3906-8.668-13.547-38.105-11.422-6.8672 0.49609-10.43-4.5664-10.922-9.7969-0.60156-6.418 3.293-13.41 13.348-14.574 6.3555-0.73438 16.539-0.027344 27.238 1.8945 18.391 3.3047 31.672 8.2734 37.391 13.996 2.5898 2.5859 3.8984 7.25 3.7852 13.484-0.29297 16.414-9.9609 37.566-16.09 43.27-9.3359 8.6797-26.754 8.6172-38.281 8.6289z"/>
  <path d="m332.25 442.52c-5.1914-4.6055-14.41-5.9336-22.383 2.0469-4.3398 4.3398-9.6094 10.488-14.707 16.434-7.4414 8.6797-18.656 22.07-22.004 22.344-0.90234 0.074219-2.4297-1.8164-2.4297-13.984l0.003907-86.66c0-9.043-7.4453-13.922-14.449-13.922-2.4727 0-4.7969 0.63281-6.8047 1.75-0.375-7.2266-5.9609-12.23-13.918-12.23-7.8398 0-15.934 5.0234-16.105 13.434-2.7266-1.6836-5.9727-2.5664-9.1445-2.5664-3.8125 0-7.3711 1.1797-10.027 3.3203-3.1016 2.4961-4.8086 6.2109-4.8086 10.453v12.879c-2.2422-1.0938-4.8203-1.6562-7.3945-1.6562-7.0547 0-14.195 4.1055-14.195 11.953v105.31c0 20.652 10.863 41.559 31.625 41.559h35.727c23.051 0 41.273-21.727 47.262-28.867 4.3672-5.207 14.348-18.926 23.996-32.195 7.9727-10.965 16.219-22.301 20.77-28.09 6.2031-7.8984 4.1875-16.699-1.0117-21.309zm-4.25 17.172c-4.625 5.8867-12.539 16.77-20.918 28.289-9.5859 13.18-19.492 26.805-23.715 31.832-5.4922 6.5469-22.207 26.477-42.133 26.477h-35.727c-19.723 0-24.934-22.805-24.934-34.867v-105.31c0-4.1641 4.9062-5.2617 7.5039-5.2617 2.7461 0 7.3945 1.1094 7.3945 5.2617v54.832c0 1.8477 1.5 3.3477 3.3477 3.3477 1.8477 0 3.3477-1.5 3.3477-3.3477l-0.003907-78.008c0-2.2383 0.77734-4.0039 2.3164-5.2422 4.2773-3.4453 14.961-2.1445 14.961 5.957l-0.003906 78.008c0 1.8477 1.5 3.3477 3.3477 3.3477s3.3477-1.5 3.3477-3.3477l-0.003906-89.668c0-4.832 5.5117-7.0078 9.4297-7.0078 1.7109 0 7.2969 0.45312 7.2969 6.293v11.422 79.262c0 1.8477 1.5 3.3477 3.3477 3.3477s3.3477-1.5 3.3477-3.3477l-0.003906-79.043v-0.21875c0-2.4297 0.6875-4.3008 2.043-5.5547 1.1719-1.082 2.8359-1.6797 4.6875-1.6797 3.1172 0 7.7578 1.9258 7.7578 7.2305v86.66c0 7.7344 0 20.676 9.1211 20.676 5.3633 0 12.371-7.5195 27.082-24.68 5.0156-5.8477 10.199-11.895 14.355-16.055 4.9414-4.9414 10.195-4.4531 13.211-1.7734 2.8672 2.5391 4.0312 7.2812 0.19531 12.168z"/>
  <path d="m257.49 488.47c-21.738 0-29.449 21.211-29.449 39.379 0 1.8477 1.5 3.3477 3.3477 3.3477 1.8477 0 3.3477-1.5 3.3477-3.3477 0-5.457 1.0977-32.688 22.758-32.688 1.8477 0 3.3477-1.5 3.3477-3.3477-0.007813-1.8438-1.5039-3.3438-3.3516-3.3438z"/>
  <path d="m253.48 481.84c0-1.8477-1.5-3.3477-3.3477-3.3477h-39.551c-1.8477 0-3.3477 1.5-3.3477 3.3477s1.5 3.3477 3.3477 3.3477h39.551c1.8477 0 3.3477-1.5 3.3477-3.3477z"/>
  <path d="m201.79 478.49h-8.0078c-1.8477 0-3.3477 1.5-3.3477 3.3477s1.5 3.3477 3.3477 3.3477h8.0078c1.8477 0 3.3477-1.5 3.3477-3.3477-0.003906-1.8477-1.5-3.3477-3.3477-3.3477z"/>
  <path d="m569.2 351.8c-8.7656-2.3906-16.523 1.6602-18.832 9.7266-4.3984 13.734-18.195 64.5-23.227 85.035-0.035157 0.015625-0.18359 0.035156-0.35547-0.046875-0.14062-0.066406-0.22266-0.17188-0.27734-0.34766-3.0547-10.508-10.078-39.758-15.203-61.117-2.4336-10.145-4.4453-18.508-5.4023-22.254-2.1953-8.6016-9.8164-13.059-18.926-11.098-8.8516 1.9062-16.969 9.7812-15.191 19.867 2.4531 10.398 8.707 41.078 11.762 56.18-1.75-0.47266-3.6484-0.71875-5.7031-0.63281-5.7227 0.26562-11.379 3.0703-13.961 8.0859-1.3633-1.8516-3.25-3.3398-5.6055-4.3633-5.9727-2.5898-14.121-1.6406-19.375 2.2539-4.0547 3.0039-5.9805 7.3047-5.4297 12.113l5.043 43.941 0.007812 0.0625c0.23438 2.0273 0.89062 3.8555 1.8906 5.4531v4.4414c0 24.539 12.871 49.383 37.473 49.383 6.5625 0 10.957-0.8125 14.113-1.9297 3.6094 1.5391 11.883 2.3945 21.57 2.3945 17.289 0 38.895-2.7031 45.672-9.0156 6.7891-6.3203 11.66-17.977 11.848-28.34 0.13672-7.6992-2.2461-14.23-6.8945-18.879-1.1016-1.1016-3-2.3984-5.5977-3.875 3.0703-15.871 19.648-101.39 23.289-116.3 2.7109-10.496-4.5156-18.52-12.688-20.742zm-91.02 82.449c0.82031-0.058594 8.0234-0.1875 8.3555 6.1055 0.48047 9.1758 0.79688 13.332 1.2734 19.625l0.16016 2.1484c-4.4219 1.7188-8.1484 5.3359-10.402 9.6211-3.3828 6.4219-3.8398 15.098 1.9688 20.941-1.7773-0.054687-3.5156-0.46094-4.9336-1.2812-1.9766-1.1445-3.0391-2.8789-3.2188-5.1211-0.015625-0.28125-0.011718-0.55859-0.042968-0.84375l-0.039063-0.33203-0.71875-18.082-1.0078-25.312c-0.22266-5.5859 5.5312-7.3281 8.6055-7.4688zm-35.016 4.5781c3.2266-2.3945 8.6172-3.0273 12.277-1.4375 2.2305 0.96484 3.4922 2.6016 3.75 4.8594l3.9883 34.766c0 0.015625 0.003907 0.027344 0.003907 0.042969l0.98828 8.6094 0.019531 0.53125 0.003906 0.0625c0.003906 0.13281 0.03125 0.25391 0.039063 0.38672 0.10938 2.0508-0.73047 3.793-2.582 5.1641-3.2266 2.3906-8.6211 3.0273-12.277 1.4375-2.2305-0.96484-3.4922-2.6016-3.75-4.8594l-3.9883-34.766c0-0.015625-0.003906-0.027344-0.003906-0.042969l-1.0547-9.1953c-0.25781-2.2266 0.61328-4.0977 2.5859-5.5586zm120.79 72.641c-0.17187 9.5664-4.9453 18.934-9.5703 23.238-7.0742 6.5859-39.391 8.1445-53.66 6.5508 0.40625-0.24609 0.80078-0.43359 1.2539-0.56641 1.8945-0.55078 2.9844-2.5312 2.4336-4.4297-0.55078-1.8945-2.5273-2.9805-4.4297-2.4336-2.418 0.70312-4.0273 1.9766-5.4531 3.0977-2.6172 2.0664-5.5859 4.4141-16.641 4.4141-23.453 0-30.02-26.375-30.301-41.207 1.9961 0.70703 4.1523 1.1289 6.3711 1.1289 4.2891 0 8.6797-1.2852 11.949-3.707 0.86328-0.64063 1.6094-1.3516 2.2773-2.1016 0.82812 0.80469 1.7734 1.5195 2.8359 2.1367 2.6094 1.5117 5.7461 2.2695 8.9141 2.2695 2.7344 0 5.4766-0.59766 7.957-1.7266 11.66 6.4062 35.008 18.598 36.164 19.203 1.7461 0.91406 3.9062 0.23437 4.8203-1.5156 0.91406-1.7461 0.23437-3.9062-1.5156-4.8203-0.32812-0.17188-33.117-17.293-40.699-21.754-5.7695-3.3945-5.0977-9.7539-2.7734-14.168 2.4883-4.7227 7.6836-8.6211 13.207-6.0391 4.4297 2.0742 11.176 4.9414 18.984 8.2617 15.645 6.6445 39.285 16.688 43.07 20.469 4.1016 4.1016 4.8789 9.7109 4.8047 13.699zm11.012-140.66c-3.6016 14.738-19.031 94.242-22.969 114.59-8.1211-3.9805-19.535-8.8945-33.121-14.664-7.7461-3.293-14.438-6.1328-18.746-8.1523-1.707-0.80078-3.4062-1.2578-5.0664-1.4336l-0.12891-1.6992c-0.47266-6.2461-0.78516-10.367-1.2617-19.461-0.10937-2.0625-0.63281-3.9336-1.4883-5.582-1.0742-5.3359-10.301-51.176-13.395-64.273-0.99219-5.6406 4.1523-10.246 9.6992-11.441 2.5664-0.55469 8.7227-1.082 10.5 5.8789 0.95312 3.7305 2.9492 12.059 5.375 22.156 5.1445 21.426 12.188 50.773 15.289 61.441 0.97266 3.3438 4.1172 5.6875 7.5469 5.5547 3.3633-0.070313 6.0586-2.2383 6.8711-5.5234 5.4336-22.043 19.039-71.789 23.137-84.594 1.5039-5.2461 6.3945-5.9141 10.121-4.9062 4.8438 1.3203 9.3008 5.6602 7.6367 12.113z"/>
  <path d="m282.69 278.51-11.23-5.0547c-1.6016-0.72266-3.4922-0.007813-4.2148 1.5977-0.71094 1.5781-0.019532 3.4102 1.5234 4.1602-30.445 4.9023-53.023 30.633-53.023 62.672 0 1.7578 1.4258 3.1875 3.1875 3.1875 1.7578 0 3.1875-1.4258 3.1875-3.1875 0-28.5 19.852-51.469 46.77-56.25-1.082 1.0234-1.3828 2.6602-0.55859 3.9688 0.60547 0.96484 1.6445 1.4922 2.7031 1.4922 0.57812 0 1.1641-0.15625 1.6914-0.48828l10.352-6.4961c0.99609-0.625 1.5664-1.7461 1.4844-2.918-0.078125-1.1719-0.79688-2.2031-1.8711-2.6836z"/>
  <path d="m518.3 341.65 5.0547-11.23c0.72266-1.6016 0.007812-3.4922-1.5977-4.2148-1.5781-0.71094-3.4102-0.019531-4.1602 1.5234-4.9023-30.445-30.633-53.023-62.672-53.023-1.7578 0-3.1875 1.4258-3.1875 3.1875 0 1.7578 1.4258 3.1875 3.1875 3.1875 28.5 0 51.469 19.852 56.25 46.77-1.0234-1.082-2.6602-1.3828-3.9688-0.55859-0.96484 0.60547-1.4922 1.6406-1.4922 2.7031 0 0.57812 0.15625 1.1641 0.48828 1.6914l6.4961 10.352c0.625 0.99609 1.7461 1.5664 2.918 1.4844 1.1719-0.078126 2.2031-0.80078 2.6836-1.8711z"/>
  <path d="m329.15 501.52 4.3125 11.535c0.61328 1.6484 2.4531 2.4883 4.1016 1.8711 1.6211-0.60547 2.4375-2.3867 1.8867-4.0078 24.906 18.18 59.078 16.117 81.84-6.4258 1.25-1.2383 1.2617-3.2578 0.023437-4.5078-1.2383-1.25-3.2578-1.2617-4.5078-0.023437-20.25 20.055-50.535 22.113-72.879 6.3516 1.4883 0.050782 2.8594-0.89062 3.2148-2.3945 0.26172-1.1094-0.09375-2.2188-0.83984-2.9727-0.40625-0.41016-0.92969-0.71484-1.5352-0.85938l-11.898-2.7852c-1.1445-0.26953-2.3438 0.11328-3.1172 0.99609-0.78516 0.88672-1.0156 2.125-0.60156 3.2227z"/>
 </g>
</svg>
